# xmcd CD database file
#
# Track frame offsets:
#	150
#	12590
#	22970
#	38102
#	55312
#	65865
#	85037
#	102712
#	117887
#	137560
#	152387
#	170600
#	188440
#	204702
#	221162
#	239225
#	256990
#	270587
#	280537
#	295277
#	306937
#	324127
#
# Disc length: 4598 seconds
#
# Revision: 3
# Processed by: cddbd v1.5.2PL0 Copyright (c) Steve Scherf et al.
# Submitted via: CDex 1.70beta2
#
DISCID=4311f416
DTITLE=Domenico Modugno - la Storia - [CD2]
DYEAR=1994
DGENRE=Musica Italiana
TTITLE0=Strada 'nfosa
TTITLE1=Piove
TTITLE2='u Pisci Spada
TTITLE3=Meraviglioso
TTITLE4=Notte Di Luna Calante
TTITLE5=Come Hai Fatto
TTITLE6=Come Stai?
TTITLE7=La Gabbia
TTITLE8=La Lontananza
TTITLE9=Amara Terra Mia
TTITLE10=Questa È La Mia Vita
TTITLE11=Piange Il Telefono
TTITLE12=Il Mastro Di Violino
TTITLE13=Malarazza
TTITLE14=L'anniversario
TTITLE15=La Porta Chiusa
TTITLE16=Canzone Dei Cadetti Di Guascogna
TTITLE17=Buon Natale A Tutto Il Mondo
TTITLE18=Giorno Per Giorno
TTITLE19=W L'america
TTITLE20=Io Vivo Qui
TTITLE21=Delfini
EXTD=Disco 2 YEAR: 1994
EXTT0=
EXTT1=
EXTT2=
EXTT3=
EXTT4=
EXTT5=
EXTT6=
EXTT7=
EXTT8=
EXTT9=
EXTT10=
EXTT11=
EXTT12=
EXTT13=
EXTT14=
EXTT15=
EXTT16=
EXTT17=
EXTT18=
EXTT19=
EXTT20=
EXTT21=
PLAYORDER=
